# xmcd
#
# Track frame offsets: 
#        150
#        13139
#        24696
#        40175
#        55068
#        69711
#        85880
#        98132
#        112955
#        131733
#        143454
#        155424
#        171068
#        189188
#
# Disc length: 2689 seconds
#
# Revision: 0
# Processed by: cddbd v1.5.2PL0 Copyright (c) Steve Scherf et al.
# Submitted via: ExactAudioCopy v1.3
#
DISCID=b10a7f0e
DTITLE=Holly Dunn - Country Masters
DYEAR=2015
DGENRE=Country
TTITLE0=(It's Always Gonna Be) Someday
TTITLE1=Are You Ever Gonna Love Me
TTITLE2=Daddy's Hands
TTITLE3=Heart Full Of Love
TTITLE4=Love Someone Like Me
TTITLE5=Only When I Love
TTITLE6=Send The Light
TTITLE7=Strangers Again
TTITLE8=Sweet Hour Of Prayer
TTITLE9=That's What Your Love Does To Me
TTITLE10=There Goes My Heart Again
TTITLE11=What A Friend We Have In Jesus
TTITLE12=(On The Wings) Of An Angel
TTITLE13=You Really Had Me Going
EXTD=
EXTT0=
EXTT1=
EXTT2=
EXTT3=
EXTT4=
EXTT5=
EXTT6=
EXTT7=
EXTT8=
EXTT9=
EXTT10=
EXTT11=
EXTT12=
EXTT13=
PLAYORDER=
